<svg version="1.1" id="wasoft-full" xmlns="http://www.w3.org/2000/svg" xmlns:xlink="http://www.w3.org/1999/xlink" x="0px" y="0px"
	 width="495.827px" height="284.386px" viewBox="0 0 495.827 284.386" enable-background="new 0 0 495.827 284.386"
	 xml:space="preserve">
<g>
	<path fill="#BAEA26" d="M331.617,161.977c-0.62,1.08-1.631,1.81-2.801,2.069c-0.319,0.079-0.648,0.119-0.99,0.119h-0.01
		l-15.099-0.009c-0.321,0-0.642-0.04-0.941-0.11c-0.43-0.091-0.849-0.25-1.229-0.47s-0.731-0.49-1.021-0.819
		c-0.01-0.011-0.01-0.011-0.01-0.021c-0.009-0.01-0.009-0.01-0.02-0.02c-0.23-0.221-0.4-0.48-0.569-0.75l-11.201-19.391l-0.04-0.08
		l-12.439-21.541l-0.061-0.109l-0.009-0.01l0.069-0.12l8.75-15.16c0.181-0.31,0.391-0.59,0.631-0.84
		c0.809-0.86,1.938-1.35,3.159-1.35c1.21,0,2.33,0.48,3.149,1.33c0.01,0,0.01,0,0.021,0.009c0.229,0.25,0.448,0.541,0.63,0.851
		l8.75,15.17l0.068,0.12l12.4,21.49l0.1,0.16l8.711,15.101c0.181,0.31,0.319,0.64,0.42,0.97v0.01
		C332.367,159.717,332.227,160.915,331.617,161.977"/>
	<path fill="#BAEA26" d="M280.217,156.927c0,1.278-0.35,2.54-0.989,3.66c-1.031,1.8-2.7,3.02-4.641,3.46
		c-0.529,0.13-1.091,0.189-1.649,0.189c-0.561,0-1.12-0.06-1.65-0.189c-1.939-0.44-3.609-1.66-4.64-3.46l-0.13-0.23
		c-1.09-1.92-1.28-4.05-0.561-5.991c0.11-0.318,0.25-0.629,0.42-0.938l6.319-10.932l0.101-0.169l0.07-0.12l0.061,0.091v0.01
		l0.109,0.188l6.23,10.79c0.21,0.361,0.38,0.741,0.52,1.142c0,0.01,0,0.01,0.01,0.02v0.009
		C280.067,155.236,280.217,156.075,280.217,156.927"/>
	<path fill="#FFFFFF" d="M216.456,186.777c-0.25,0.35-11,19.04-11,19.04c-0.609,1.148-2.729,1.688-3.71-0.182l-5.96-10.618
		l-0.01-0.021c-2.98,5.15-6.24,10.82-6.24,10.82c-0.609,1.148-2.729,1.688-3.71-0.182l-5.96-10.618l-0.91-1.601l-3.39-6.04
		c-0.45-0.81,0.13-1.8,1.05-1.81h5.95c0.441,0.01,0.84,0.25,1.05,0.62l6.361,11.229c0.479,0.9,1.889,1.12,2.559,0.021l2.33-4.052
		l-3.38-6.009c-0.45-0.81,0.13-1.8,1.05-1.81h5.95c0.281,0.01,0.54,0.108,0.75,0.27c0.12,0.101,0.22,0.219,0.3,0.351l0.66,1.158
		l5.71,10.071c0.481,0.9,1.88,1.12,2.55,0.021l6.601-11.48c0.439-0.611,1.089-0.39,1.309-0.111
		C216.597,186.127,216.625,186.537,216.456,186.777"/>
	<path fill="#FFFFFF" d="M232.878,204.769l-8.053-14.271c-1.053-1.621-2.906-0.919-3.378-0.095l-8.882,15.396
		c-0.256,0.493,0.075,0.835,0.21,0.938c0.157,0.121,0.668,0.317,1.059-0.205l2.18-3.756c0.088-0.138,0.31-0.378,0.675-0.358h6.265
		c0.329,0,0.512,0.186,0.632,0.37l1.846,3.325c0.08,0.13,0.454,0.763,1.246,0.761l4.933,0.001
		C232.695,206.875,233.353,205.66,232.878,204.769 M221.282,200.937h-2.929c-0.594,0.001-0.909-0.669-0.618-1.115l1.491-2.581
		c0.101-0.238,0.818-0.655,1.245,0.051l1.455,2.574C222.17,200.29,221.876,200.937,221.282,200.937"/>
	<path fill="#FFFFFF" d="M260.402,200.468c0,1.75-0.93,3.26-2.81,4.521c-1.879,1.259-4.44,1.89-7.69,1.89
		c-2.18,0-4.148-0.261-6.148-0.66c-1.121-0.229-4.231-1.021-5.241-1.431c-0.21-0.09-0.65-0.509-0.429-1.029
		c0.119-0.27,0.489-0.649,0.949-0.471c1.431,0.551,4.02,1.15,5.07,1.381c1.58,0.34,4.82,0.619,5.78,0.63
		c0.89,0.01,2.35-0.189,2.911-0.34c0.989-0.28,1.79-1.03,1.979-2.021c0.13-0.63,0.032-1.103-0.637-1.659
		c-0.502-0.419-1.647-0.561-3.459-0.901c-1.932-0.363-3.326-0.538-5.371-1.011c-1.468-0.338-3.223-1.079-3.7-1.363
		c-0.89-0.53-1.942-1.203-2.551-1.938c-0.805-1.075-1.032-2.417-1.032-4.077c0-1.75,0.93-3.261,2.811-4.521
		c1.88-1.26,4.439-1.891,7.688-1.891c2.181,0,4.15,0.261,6.15,0.661c1.121,0.229,4.229,1.02,5.24,1.43
		c0.211,0.09,0.649,0.51,0.43,1.029c-0.12,0.271-0.49,0.65-0.95,0.471c-1.429-0.551-4.019-1.15-5.069-1.381
		c-1.591-0.34-4.819-0.609-5.79-0.63c-0.891,0-2.351,0.19-2.9,0.34c-1,0.281-1.79,1.031-1.98,2.021
		c-0.13,0.631-0.003,1.21,0.333,1.539c0.418,0.409,1.011,0.454,2.728,0.833c1.736,0.385,3.311,0.606,5.371,1.011
		c2.396,0.468,3.771,1.126,4.268,1.375c1.527,0.762,2.322,1.451,2.876,2.113C260.211,197.73,260.402,198.808,260.402,200.468"/>
	<path fill="#FFFFFF" d="M279.516,191.838c-0.75-0.85-2.91-2.32-6.319-2.32c-2.711,0-3.691,0.58-4.921,1.471
		c-1.42,1.029-3.4,3.33-3.4,7.199c0,3.87,1.98,6.18,3.4,7.211c1.229,0.889,2.21,1.469,4.921,1.469c3.409,0,5.569-1.469,6.319-2.319
		c1.909-2.149,2.109-3.77,2.13-6.36C281.625,195.598,281.425,193.988,279.516,191.838 M278.846,202.928
		c-0.41,0.63-1.601,1.37-2.761,1.37c-2.09,0-2.8-1.04-3.38-2.07c-0.71-1.3-0.72-3.02-0.72-4.04c0-1.02,0.01-2.729,0.72-4.03
		c0.58-1.029,1.29-2.069,3.38-2.069c1.16,0,2.351,0.739,2.761,1.37c0.76,1.13,1.289,2.039,1.319,4.729
		C280.135,200.878,279.605,201.798,278.846,202.928"/>
	<path fill="#FFFFFF" d="M300.791,189.508h-12.385c-1.219,0-2.21,0.989-2.069,1.689v14.23c-0.011,0.87,0.79,1.45,1.439,1.45h4.26
		c0.74,0,1.45-0.58,1.45-1.45l-0.02-1.46c0-0.21,0.14-1.521,1.449-1.55h4.4c0,0,0.65-0.02,0.73-0.66c0-0.061,0.029-0.82-0.78-0.82
		h-4.4c-1,0-1.399-0.92-1.399-1.44v-7.06c0-1.1,1.04-1.45,1.449-1.45l5.875-0.001C301.849,190.921,301.666,189.508,300.791,189.508"
		/>
	<path fill="#FFFFFF" d="M319.393,189.508c-0.312,0-14.91,0.021-15.381,0.01c-0.489-0.01-0.729,0.41-0.729,0.729
		c0,0.261,0.18,0.74,0.72,0.74h2.271c1.04,0.041,1.88,1,1.88,2.05l0.01,12.391c-0.01,0.83,0.69,1.45,1.44,1.45h4.239
		c0.63,0.01,1.45-0.5,1.45-1.45l-0.03-12.99c0.19-1.03,0.4-1.44,1.44-1.45h2.69c0.3,0,0.729-0.25,0.729-0.74
		C320.121,189.778,319.722,189.518,319.393,189.508"/>
	<path fill="#FFFFFF" d="M280.236,84.816c0,0.78-0.13,1.55-0.39,2.3c0,0.01,0,0.02-0.009,0.03c-0.151,0.441-0.341,0.87-0.571,1.29
		l-6.229,10.78l-0.102,0.18l-0.068,0.12l-0.092-0.15l-0.079-0.15l-5.881-10.17c-0.38-0.56-0.68-1.16-0.89-1.78v-0.01
		c-0.639-1.919-0.45-4.04,0.59-5.87l0.13-0.23c1.051-1.83,2.761-3.069,4.761-3.49c0.5-0.11,1.011-0.16,1.54-0.16
		s1.039,0.05,1.539,0.16c2,0.421,3.711,1.66,4.761,3.49C279.887,82.266,280.236,83.536,280.236,84.816"/>
	<path fill="#FFFFFF" d="M260.537,120.856l-0.069,0.12l-8.771,15.17c-0.18,0.31-0.389,0.59-0.63,0.83
		c-0.809,0.87-1.929,1.36-3.16,1.36c-1.229,0-2.359-0.49-3.169-1.36c-0.229-0.24-0.439-0.52-0.619-0.83l-8.75-15.16l-0.08-0.14
		l-12.391-21.46l-0.099-0.17l-8.731-15.12c-0.179-0.3-0.309-0.62-0.399-0.94c-0.351-1.14-0.21-2.36,0.399-3.43
		c0.611-1.06,1.601-1.79,2.741-2.06c0.339-0.09,0.689-0.13,1.049-0.13h15.151c0.36,0,0.7,0.04,1.04,0.13
		c0.399,0.09,0.779,0.25,1.13,0.45c0.37,0.21,0.7,0.47,0.99,0.78c0.25,0.25,0.45,0.53,0.63,0.83l11.2,19.4l0.051,0.09l12.41,21.5
		l0.068,0.13L260.537,120.856z"/>
	<path fill="#FFFFFF" d="M231.847,161.986c-0.61,1.061-1.601,1.79-2.74,2.061c-0.34,0.089-0.69,0.129-1.05,0.129h-15.1
		c-0.36,0-0.711-0.04-1.05-0.129c-0.4-0.101-0.789-0.25-1.15-0.46c-0.36-0.211-0.69-0.471-0.97-0.771
		c-0.25-0.25-0.45-0.53-0.63-0.83l-11.2-19.41l-0.05-0.08l-12.42-21.52l-0.08-0.13l-12.39-21.46l-0.1-0.17l-8.72-15.11
		c-0.17-0.29-0.3-0.599-0.39-0.91v-0.01c-0.36-1.15-0.231-2.38,0.39-3.46c0.61-1.06,1.6-1.79,2.74-2.06
		c0.34-0.09,0.69-0.13,1.05-0.13h15.11c0.36,0,0.71,0.04,1.04,0.13c0.41,0.1,0.79,0.25,1.15,0.46c0.36,0.211,0.7,0.47,0.98,0.77
		c0.24,0.25,0.45,0.53,0.63,0.83l11.2,19.41l0.05,0.08l12.42,21.52l0.06,0.11l12.41,21.491l0.09,0.159l8.72,15.11
		c0.18,0.29,0.3,0.6,0.39,0.91v0.01c0.009,0.01,0.009,0.01,0.009,0.021C232.607,159.687,232.467,160.916,231.847,161.986"/>
</g>
</svg>
