<svg version="1.1" id="wasoft-light" xmlns="http://www.w3.org/2000/svg" xmlns:xlink="http://www.w3.org/1999/xlink" x="0px" y="0px"
	 width="495.827px" height="284.386px" viewBox="0 0 495.827 284.386" enable-background="new 0 0 495.827 284.386"
	 xml:space="preserve">
<g>
	<path fill="#BAEA26" d="M331.627,183.353c-0.801,1.37-2.21,2.19-3.801,2.19l-15.099-0.01c-1.561,0-3.01-0.841-3.79-2.19
		l-23.76-41.13l8.818-15.28c0.802-1.37,2.211-2.19,3.802-2.19c1.579,0,3,0.82,3.79,2.19l30.039,52.04
		C332.417,180.343,332.417,181.982,331.627,183.353"/>
	<path fill="#BAEA26" d="M280.217,178.303c0,1.28-0.34,2.54-0.989,3.66c-1.311,2.29-3.66,3.65-6.29,3.65
		c-2.62,0-4.971-1.36-6.281-3.65l-0.129-0.229c-1.271-2.23-1.32-4.75-0.15-6.931l6.49-11.22l6.4,11.08
		C279.888,175.753,280.217,177.013,280.217,178.303"/>
	<path fill="#FFFFFF" d="M280.236,106.193c0,1.24-0.329,2.49-0.97,3.62l-6.398,11.08l-6.041-10.47c-1.569-2.3-1.69-5.24-0.301-7.66
		l0.131-0.23c1.301-2.29,3.659-3.66,6.29-3.66c2.641,0,5,1.37,6.3,3.66C279.896,103.643,280.236,104.913,280.236,106.193"/>
	<path fill="#FFFFFF" d="M260.547,142.233l-8.851,15.29c-0.79,1.37-2.21,2.189-3.79,2.189c-1.58-0.01-3-0.819-3.789-2.189
		l-30.05-52.05c-0.791-1.37-0.791-3,0-4.37c0.8-1.37,2.209-2.19,3.79-2.19h15.15c1.56,0,3.01,0.84,3.79,2.19L260.547,142.233z"/>
	<path fill="#FFFFFF" d="M231.857,183.363c-0.79,1.37-2.21,2.189-3.8,2.189h-15.099c-1.561,0-3.011-0.84-3.79-2.189l-44.96-77.88
		c-0.801-1.37-0.801-3.01,0-4.38c0.789-1.37,2.21-2.19,3.789-2.19h15.11c1.561,0,3.011,0.84,3.79,2.19l44.96,77.88
		C232.647,180.354,232.647,181.993,231.857,183.363"/>
</g>
</svg>