<?xml version="1.0" encoding="iso-8859-1"?>
<svg height="800px" width="800px" version="1.1" id="Capa_1"
	xmlns="http://www.w3.org/2000/svg"
	xmlns:xlink="http://www.w3.org/1999/xlink" viewBox="0 0 410 410" xml:space="preserve">
	<g>
		<path d="M400,205.746h-45.714v-24.777c0-20.414-9.373-39.405-25.327-51.826V62.266
		c2.961-1.736,4.955-4.943,4.955-8.624c0-2.488-0.914-4.758-2.417-6.508c0.723-1.71,1.122-3.59,1.122-5.563V29.555
		c0-7.898-6.402-14.3-14.301-14.3h-59.493c-7.899,0-14.302,6.401-14.302,14.3V41.57c0,1.972,0.399,3.85,1.121,5.559
		c-1.506,1.75-2.422,4.023-2.422,6.513c0,3.684,1.997,6.893,4.962,8.628v66.872c-15.955,12.415-25.327,31.406-25.327,51.827v24.777
		h-35.715v-24.777c0-20.415-9.373-39.406-25.327-51.826V62.266c2.961-1.736,4.956-4.944,4.956-8.625
		c0-2.488-0.914-4.758-2.417-6.508c0.723-1.71,1.123-3.59,1.123-5.563V29.555c0-7.898-6.402-14.3-14.302-14.3H91.682
		c-7.898,0-14.301,6.401-14.301,14.3V41.57c0,1.972,0.399,3.85,1.121,5.559c-1.506,1.75-2.422,4.023-2.422,6.513
		c0,3.683,1.996,6.892,4.961,8.627v66.873c-15.955,12.417-25.327,31.407-25.327,51.827v24.777H10c-5.523,0-10,4.477-10,10v168.999
		c0,5.523,4.477,10,10,10h390c5.523,0,10-4.477,10-10V215.746C410,210.223,405.523,205.746,400,205.746z M242.857,180.968
		c0-15.502,7.771-29.823,20.789-38.309c2.831-1.846,4.539-4.997,4.539-8.377V63.642h40.774v70.64c0,3.379,1.706,6.529,4.536,8.375
		c13.019,8.493,20.791,22.815,20.791,38.312v24.777h-91.429V180.968z M75.714,180.968c0-15.501,7.771-29.822,20.789-38.309
		c2.831-1.846,4.539-4.997,4.539-8.377V63.642h40.774v70.64c0,3.379,1.707,6.53,4.537,8.375
		c13.019,8.492,20.791,22.814,20.791,38.312v24.777H75.714V180.968z M390,374.745H20V225.746h370V374.745z"/>
		<path d="M227.41,248.412h-44.82c-17.222,0-31.232,14.011-31.232,31.232
		c0,17.221,14.011,31.232,31.232,31.232h44.82c17.222,0,31.233-14.011,31.233-31.232
		C258.643,262.422,244.632,248.412,227.41,248.412z M227.41,290.875h-44.82c-6.193,0-11.232-5.039-11.232-11.232
		c0-6.193,5.039-11.232,11.232-11.232h44.82c6.193,0,11.232,5.039,11.232,11.232C238.643,285.837,233.604,290.875,227.41,290.875z" />
	</g>
</svg>