<?xml version="1.0" encoding="utf-8"?>
<svg version="1.1"
	xmlns="http://www.w3.org/2000/svg"
	xmlns:xlink="http://www.w3.org/1999/xlink" x="0px" y="0px" viewBox="0 0 150 150">
	<g>
		<path fill="#96FD00" d="M146.73,134.46l-24.105-24.104c-1.141-1.141-2.67-1.785-4.29-1.785c-0.675,0-1.351,0.119-1.965,0.33
		c-9.96-12.735-14.865-36.855-16.306-45.121c-0.494-4.08-1.395-8.4-2.715-12.945C93.09,36.165,84.825,20.91,76.8,12.87
		C69.285,5.355,59.1,1.23,48.12,1.23c-5.91,0-11.73,1.17-17.31,3.495c-5.745,2.385-10.935,5.88-15.435,10.365
		C6.93,23.535,2.025,34.53,1.545,46.05c-0.48,11.685,3.645,22.5,11.61,30.466C18.84,82.2,28.14,88.05,38.67,92.58
		c7.5,3.225,15.03,5.505,21.975,6.689l0,0c0.345,0.045,32.746,4.996,48.03,17.34c-0.735,2.131-0.255,4.576,1.44,6.271l24.105,24.104
		c1.139,1.141,2.67,1.785,4.289,1.785c1.62,0,3.15-0.629,4.29-1.785l3.945-3.944C149.085,140.686,149.085,136.83,146.73,134.46z
		 M71.07,89.939c-2.37,0-4.86-0.209-7.425-0.6c-0.645-0.105-1.11-0.18-1.35-0.225c-15.705-2.7-33.69-11.7-41.88-19.89
		c-12.315-12.3-11.31-33.33,2.22-46.86c6.9-6.9,16.185-10.845,25.47-10.845c8.235,0,15.84,3.06,21.405,8.64
		c6.81,6.81,14.19,20.61,17.955,33.555c0.87,3.015,1.545,5.91,1.995,8.625l-0.06,0.015c0.029,0.255,0.195,1.38,0.51,3.165
		c1.02,8.97-0.45,15.93-4.32,19.8C82.516,88.395,77.641,89.939,71.07,89.939z M89.07,95.654c1.38-0.885,2.64-1.904,3.795-3.059
		c1.035-1.035,1.98-2.176,2.805-3.406c1.109,3.451,2.37,6.976,3.825,10.41C96.045,98.1,92.52,96.795,89.07,95.654z"/>
		<path fill="#96FD00" d="M110.325,49.365c0,7.005,5.685,12.69,12.69,12.69c7.004,0,12.689-5.685,12.689-12.69
		c0-7.005-5.686-12.69-12.689-12.69C116.01,36.675,110.325,42.36,110.325,49.365z"/>
	</g>
</svg>
