<?xml version="1.0" encoding="utf-8"?>
<!-- Generator: Adobe Illustrator 16.0.0, SVG Export Plug-In . SVG Version: 6.00 Build 0)  -->
<!DOCTYPE svg PUBLIC "-//W3C//DTD SVG 1.1//EN" "http://www.w3.org/Graphics/SVG/1.1/DTD/svg11.dtd">
<svg version="1.1" id="Layer_1" xmlns="http://www.w3.org/2000/svg" xmlns:xlink="http://www.w3.org/1999/xlink" x="0px" y="0px"
	 width="600px" height="600px" viewBox="0 0 600 600" enable-background="new 0 0 600 600" xml:space="preserve">
<path fill="none" stroke="#000000" stroke-width="20" stroke-miterlimit="10" d="M146.645,314.077c0,0,3.09,77.251,4.639,88.042
	c1.541,10.813,79.999,134.075,79.999,134.075"/>
<polyline fill="none" stroke="#000000" stroke-width="20" stroke-miterlimit="10" points="277.107,485.396 268.666,517.973 
	226.962,539.596 "/>
<line fill="none" stroke="#000000" stroke-width="20" stroke-miterlimit="10" x1="248.094" y1="563.212" x2="272.811" y2="538.483"/>
<polyline fill="none" stroke="#000000" stroke-width="20" stroke-miterlimit="10" points="294.608,485.839 296.198,519.271 
	326.525,542.653 403.033,426.852 438.567,267.751 "/>
<line fill="none" stroke="#000000" stroke-width="20" stroke-miterlimit="10" x1="312.222" y1="561.027" x2="288.78" y2="540.199"/>
<line fill="none" stroke="#000000" stroke-width="20" stroke-miterlimit="10" x1="278.79" y1="579.502" x2="279.19" y2="557.74"/>
<line fill="none" stroke="#000000" stroke-width="20" stroke-miterlimit="10" x1="194.529" y1="263.113" x2="268.661" y2="287.828"/>
<line fill="none" stroke="#000000" stroke-width="20" stroke-miterlimit="10" x1="348.969" y1="297.101" x2="415.403" y2="301.742"/>
<polyline fill="none" stroke="#000000" stroke-width="20" stroke-miterlimit="10" points="253.223,392.867 251.678,402.134 
	290.275,425.292 327.353,417.57 330.435,400.582 "/>
<line fill="none" stroke="#000000" stroke-width="20" stroke-miterlimit="10" x1="309.296" y1="301.742" x2="307.74" y2="380.504"/>
<polyline fill="none" stroke="#000000" stroke-width="20" stroke-miterlimit="10" points="217.58,393.426 197.618,406.747 
	197.618,429.933 "/>
<polyline fill="none" stroke="#000000" stroke-width="20" stroke-miterlimit="10" points="201.225,408.525 280.869,458.357 
	344.341,451.56 "/>
<polygon fill="none" stroke="#000000" stroke-width="20" stroke-miterlimit="10" points="462.402,280.578 310.365,226.053 
	305.737,148.807 219.081,109.768 171.363,150.379 161.103,282.923 125.906,237.812 136.688,141.026 266.378,20.498 410.762,68.508 
	475.632,204.412 "/>
<polyline fill="none" stroke="#000000" stroke-width="20" stroke-miterlimit="10" points="204.559,294.781 222.526,295.716 
	233.915,296.326 270.205,310.995 "/>
<polyline fill="none" stroke="#000000" stroke-width="20" stroke-miterlimit="10" points="343.172,321.063 387.59,320.263 
	398.091,332.241 "/>
<polyline fill="none" stroke="#000000" stroke-width="20" stroke-miterlimit="10" points="415.403,369.699 433.928,382.037 
	452.46,348.056 438.593,276.052 "/>
<polyline fill="none" stroke="#000000" stroke-width="20" stroke-miterlimit="10" points="126.69,233.886 113.246,302.981 
	147.271,357.047 "/>
</svg>
