<?xml version="1.0" encoding="utf-8"?>
<!-- Generator: Adobe Illustrator 16.0.0, SVG Export Plug-In . SVG Version: 6.00 Build 0)  -->
<!DOCTYPE svg PUBLIC "-//W3C//DTD SVG 1.1//EN" "http://www.w3.org/Graphics/SVG/1.1/DTD/svg11.dtd">
<svg version="1.1" id="Layer_1" xmlns="http://www.w3.org/2000/svg" xmlns:xlink="http://www.w3.org/1999/xlink" x="0px" y="0px"
	 width="600px" height="600px" viewBox="-7.76 73.863 600 600" enable-background="new -7.76 73.863 600 600" xml:space="preserve">
<path fill="none" stroke="#96FA00" stroke-width="12" stroke-miterlimit="10" d="M144.476,385.002c0,0,3.09,77.251,4.639,88.042
	c1.541,10.812,79.999,134.075,79.999,134.075"/>
<polyline fill="none" stroke="#96FA00" stroke-width="12" stroke-miterlimit="10" points="274.938,556.321 266.497,588.897 
	224.793,610.521 "/>
<line fill="none" stroke="#96FA00" stroke-width="12" stroke-miterlimit="10" x1="245.925" y1="634.137" x2="270.642" y2="609.408"/>
<polyline fill="none" stroke="#96FA00" stroke-width="12" stroke-miterlimit="10" points="292.439,556.764 294.03,590.195 
	324.356,613.578 400.865,497.776 436.398,338.676 "/>
<line fill="none" stroke="#96FA00" stroke-width="12" stroke-miterlimit="10" x1="310.053" y1="631.952" x2="286.611" y2="611.124"/>
<line fill="none" stroke="#96FA00" stroke-width="12" stroke-miterlimit="10" x1="276.621" y1="650.427" x2="277.021" y2="628.665"/>
<line fill="none" stroke="#96FA00" stroke-width="12" stroke-miterlimit="10" x1="192.36" y1="334.038" x2="266.492" y2="358.753"/>
<line fill="none" stroke="#96FA00" stroke-width="12" stroke-miterlimit="10" x1="346.8" y1="368.026" x2="413.234" y2="372.667"/>
<polyline fill="none" stroke="#96FA00" stroke-width="12" stroke-miterlimit="10" points="251.054,463.792 249.509,473.059 
	288.106,496.217 325.184,488.495 328.266,471.507 "/>
<line fill="none" stroke="#96FA00" stroke-width="12" stroke-miterlimit="10" x1="307.127" y1="372.667" x2="305.571" y2="451.429"/>
<polyline fill="none" stroke="#96FA00" stroke-width="12" stroke-miterlimit="10" points="215.411,464.351 195.449,477.672 
	195.449,500.857 "/>
<polyline fill="none" stroke="#96FA00" stroke-width="12" stroke-miterlimit="10" points="199.056,479.45 278.7,529.282 
	342.172,522.484 "/>
<polygon fill="none" stroke="#96FA00" stroke-width="12" stroke-miterlimit="10" points="460.233,351.503 308.197,296.978 
	303.568,219.732 216.912,180.693 169.194,221.304 158.934,353.848 123.737,308.737 134.519,211.951 264.209,91.423 408.593,139.433 
	473.463,275.337 "/>
<polyline fill="none" stroke="#96FA00" stroke-width="12" stroke-miterlimit="10" points="202.39,365.706 220.357,366.641 
	231.746,367.251 268.036,381.92 "/>
<polyline fill="none" stroke="#96FA00" stroke-width="12" stroke-miterlimit="10" points="341.003,391.988 385.421,391.187 
	395.922,403.166 "/>
<polyline fill="none" stroke="#96FA00" stroke-width="12" stroke-miterlimit="10" points="413.234,440.624 431.759,452.962 
	450.292,418.98 436.424,346.977 "/>
<polyline fill="none" stroke="#96FA00" stroke-width="12" stroke-miterlimit="10" points="124.521,304.81 111.077,373.906 
	145.102,427.972 "/>
</svg>
