<?xml version="1.0" encoding="utf-8"?>
<!-- Generator: Adobe Illustrator 16.0.0, SVG Export Plug-In . SVG Version: 6.00 Build 0)  -->
<!DOCTYPE svg PUBLIC "-//W3C//DTD SVG 1.1//EN" "http://www.w3.org/Graphics/SVG/1.1/DTD/svg11.dtd">
<svg version="1.1" id="Layer_1" xmlns="http://www.w3.org/2000/svg" xmlns:xlink="http://www.w3.org/1999/xlink" x="0px" y="0px"
	 width="150px" height="150px" viewBox="0 0 150 150" enable-background="new 0 0 150 150" xml:space="preserve">
<g>
	<g transform="translate(0.000000,511.000000) scale(0.100000,-0.100000)">
		<path fill="#96FD00" d="M362.129,5037.055c-70.02-66.479-96.494-96.782-129.136-145.903
			c-52.065-78.257-86.772-168.574-101.787-263.882c-7.065-46.484-7.065-146.504,0.298-193.862
			c20.879-134.463,77.954-251.826,172.08-353.906c24.419-26.191,76.187-69.717,111.782-93.555
			c40.303-27.061,110.024-61.182,155.024-75.908c43.545-14.414,96.494-25.293,144.736-30.293l35.894-3.535v-53.848v-53.809h-9.419
			c-5.298,0-41.475-1.475-80.313-2.949c-224.746-9.414-375.073-37.061-375.073-68.828c0-32.363,136.782-59.131,357.417-69.727
			c80.015-3.818,292.129-2.051,361.846,3.242c217.393,15.889,330.947,48.535,281.826,80.605
			c-30.586,20.02-118.262,37.07-243.291,47.363c-42.939,3.535-173.857,10-203.857,10.293h-6.777v55.879v55.898h9.707
			c14.727,0,62.07,8.232,94.727,16.465c44.414,11.172,78.555,23.535,120.615,43.555c80.029,38.242,123.271,70.879,216.221,162.686
			l69.141,68.252l-10.303,10.586c-5.596,5.879-19.131,18.828-30.303,28.545l-19.707,17.656l-30.303-31.484l-30.01-31.182
			l-46.484,46.484l-46.484,46.768l16.758,24.697c20.605,30.889,42.07,75.02,54.141,111.201
			c12.363,38.535,12.363,39.722-7.646,47.368c-17.07,6.465-21.768,6.182-21.768-1.768c0-7.651-19.707-64.424-28.828-82.08
			l-8.535-16.772l-2.051,23.237c-2.363,27.358-8.535,57.661-17.656,89.429l-6.768,23.237l35.889,35.591
			c37.363,37.368,39.727,38.252,39.727,17.358v-8.535h19.414h19.707l-1.777,34.707c-3.242,72.661-27.939,151.216-66.191,210.63
			c-28.545,44.717-80.605,99.136-121.797,127.383l-22.354,15.298l-6.475-15.298c-3.535-8.237-7.07-16.772-7.656-18.54
			c-0.879-1.772,8.828-10.889,21.182-20.596c12.354-9.404,24.707-19.126,27.354-21.182c3.828-3.237-2.344-10.591-47.949-56.187
			l-52.656-52.666l-25.293,22.065c-32.07,27.642-85.02,63.237-120.039,80.308c-14.697,7.354-27.051,13.833-27.051,14.717
			c-0.313,0.884,18.535,20.293,41.768,43.545l41.777,41.772l27.646-7.349c15.293-4.126,27.949-7.065,28.242-6.763
			c0.303,0.581,1.465,9.702,2.656,20.293l1.768,19.712l-22.646,5.879c-42.949,11.475-62.949,13.828-117.07,13.53
			c-57.08-0.303-90.322-5.298-136.807-20.596c-31.768-10.591-79.424-34.126-108.252-53.252l-24.678-16.44l-45.601,45.601
			l-45.601,45.601l25.894,25.308c14.414,13.53,29.111,27.358,32.651,30.298l6.768,5.596l-28.833,30l-28.525,30L362.129,5037.055z
			 M765.449,4896.43l-37.363-37.368l-20.01,6.182c-31.187,9.419-55.894,14.414-89.429,18.54l-30.889,3.828l17.656,8.232
			c26.191,12.061,76.484,27.646,101.489,31.772c12.061,1.768,24.121,3.823,26.475,4.409c2.358,0.298,18.828,0.884,36.777,1.167
			l32.363,0.303L765.449,4896.43z M402.134,4872.011c28.247-28.247,43.247-45.303,41.777-47.959
			c-0.884-2.051-8.823-12.642-17.07-23.535c-60.015-75.596-91.201-168.267-91.201-270.059c0-48.838,4.409-80.308,16.772-124.141
			c36.777-128.545,137.085-238.877,262.407-287.705c146.792-57.656,306.548-35.586,432.739,59.727l27.656,20.586l43.828-43.828
			c24.121-24.121,43.828-45.02,43.828-46.768c-0.293-4.404-39.414-35.596-70.605-56.191
			c-83.242-54.424-180.332-86.768-277.109-91.787c-167.095-9.121-314.771,45-432.729,158.262
			c-97.954,93.848-157.383,214.463-172.969,350.078c-5.293,47.954-1.768,127.964,7.651,173.564
			c15.586,75.015,43.833,143.262,83.55,202.979c20.298,30.601,51.782,70.605,55.591,70.605
			C357.422,4915.839,378.013,4896.127,402.134,4872.011z M652.485,4837.885c11.475-2.354,25.889-5.879,32.07-7.651l11.475-3.237
			l-45.303-45.303l-45.298-45.298l-47.671,47.651c-26.172,26.177-46.768,48.828-45.884,50.313c0.884,1.47,5.596,4.409,10.889,6.763
			C535.112,4847.006,623.071,4844.648,652.485,4837.885z M777.812,4792.885c39.717-20.01,77.666-45.303,112.969-74.429
			l25.293-21.484l-67.656-67.661l-67.666-67.651l-10.596,10.005l-10.293,10.005l-8.228-7.935
			c-4.712-4.712-13.53-8.818-19.409-10.005l-10.894-1.772l14.717-15l15-15.298l-23.55-23.252
			c-12.944-12.944-23.535-24.116-23.535-25.005c0.298-0.884,6.182-7.949,13.247-16.182l13.242-14.717l25.005,25.005l25.01,25.005
			l55.303-55.005l55.01-54.722l19.404-1.47c45.898-3.237,78.555-37.646,80.01-84.434c0.586-14.414,1.191-15.303,30.02-44.131
			c26.777-27.061,28.828-30,24.121-33.535c-7.07-5.293-53.848-8.242-82.676-5.293c-17.07,1.758-27.354,1.465-38.223-1.475
			c-27.07-7.354-59.727,2.061-80.039,22.949c-6.172,6.182-12.637,11.475-14.414,11.475c-11.172,0-94.136,46.191-123.848,68.828
			c-11.763,9.121-14.419,10.01-20.01,7.07c-3.242-2.051-15.303-4.121-26.191-5l-20.01-1.758l22.349-17.656
			c32.954-25.898,69.419-49.434,105.62-67.949l32.07-16.475l-45.605-45.596l-45.601-45.605l-25.889,6.465
			c-34.712,8.818-59.131,18.242-92.671,35.596c-25.005,13.252-79.424,51.182-79.424,55.303c0,1.191,22.363,24.424,50.01,51.777
			c27.358,27.363,50.01,50.605,50.01,51.484s-6.763,7.344-15,14.414l-15,12.949l-50.308-50.293l-50.596-50.615l-13.501,17.08
			c-17.056,21.172-37.363,52.354-49.424,76.484c-10.894,21.484-28.53,72.969-31.187,90.322l-1.772,11.758l45.303,45.015
			l45.298,45.303l16.772-31.47c16.768-32.07,50.01-82.666,66.196-101.494l8.818-10.288l0.298,13.53
			c0,7.651,2.056,19.409,4.409,26.177l4.414,12.642l-16.772,25.308c-17.056,25.591-45.601,78.257-49.424,91.201
			c-1.772,6.177,3.823,12.944,47.368,56.489l49.712,49.707l37.363-37.363c35.898-35.596,37.368-36.763,39.121-29.414
			c1.47,5.596-0.586,12.944-7.065,25.889c-4.995,10.293-9.121,22.949-9.121,28.828c0,8.535-2.637,12.949-15.298,25.894
			l-15.586,15.586l51.479,51.479c28.247,28.242,52.949,51.479,54.722,51.479C742.798,4809.941,759.57,4802.29,777.812,4792.885z
			 M528.931,4754.047l47.07-47.065l-43.247-43.247l-42.944-42.944l-3.525,12.944c-11.172,40.591-12.944,55.605-12.944,105.615
			c-0.298,49.126,0.884,61.782,6.182,61.782C480.977,4801.118,503.042,4779.941,528.931,4754.047z M1112.881,4756.103
			c28.525-41.772,49.707-91.484,59.424-137.666l3.535-17.656l-41.484-41.475l-41.465-41.475l-15.586,30.298
			c-24.707,48.242-62.959,103.843-93.555,136.201l-10.293,10.889l52.656,52.949l52.676,52.651l8.232-9.404
			C1091.699,4786.118,1103.174,4770.234,1112.881,4756.103z M445.093,4633.437c4.712-18.525,9.424-36.484,10.293-39.722
			c1.47-4.712-7.065-14.414-40.005-47.07l-41.475-41.191l1.47,36.768c2.656,60.601,17.939,120.615,42.661,169.155l10.586,20.596
			l3.828-32.358C434.507,4681.972,440.083,4651.972,445.093,4633.437z M968.73,4639.316c12.061-14.414,29.717-37.949,39.121-52.065
			c17.07-25.591,52.07-92.07,52.07-98.853c0-2.051-22.959-26.475-50.898-54.419l-50.605-50.596l-74.424,74.429l-74.424,74.434
			l65.303,66.777c35.596,36.768,66.475,66.782,68.545,66.782C945.478,4665.791,956.953,4654.028,968.73,4639.316z
			 M1077.568,4441.328c0-0.581,2.656-12.642,5.889-27.358c12.637-58.828,13.525-132.095,1.465-145.317l-5.596-6.182l-46.484,46.484
			l-46.455,46.484l43.242,43.247C1067.285,4436.333,1077.568,4445.454,1077.568,4441.328z M909.297,4190.41
			c13.535-2.354,35.293-5.596,48.545-6.768l24.111-2.051l-21.758-11.182c-49.424-25.293-122.09-42.939-177.09-42.939h-24.707
			l40.898,40.889l40.605,40.605l22.344-6.758C874.883,4198.339,895.771,4193.046,909.297,4190.41z"/>
		<path fill="#96FD00" d="M728.97,4723.452c-19.126-8.237-33.54-35.298-29.717-55.605c1.172-5.596,5.298-15.303,9.707-21.479
			c6.182-9.409,7.651-14.419,7.065-28.247c-0.586-13.53,0.283-17.056,3.823-17.354c2.642-0.303,5.879-0.586,7.354-0.889
			c1.47-0.298,6.763,4.995,11.475,11.479c6.465,9.116,10.586,12.056,17.944,12.642c31.172,2.358,54.131,37.065,44.414,66.782
			c-4.717,13.828-16.777,27.944-28.535,32.656C760.449,4728.461,740.444,4728.461,728.97,4723.452z M787.812,4689.038
			c2.051-6.465-3.242-17.354-8.232-17.354c-10.303,0-14.131,13.833-6.475,21.768
			C778.682,4698.745,785.459,4696.689,787.812,4689.038z"/>
		<path fill="#96FD00" d="M634.243,4462.524c-13.53-3.823-29.414-20.879-33.237-35.596c-6.768-24.419,4.707-50.01,27.061-60.898
			c16.768-7.949,30.298-7.949,46.484,0.586c38.833,19.409,38.833,72.959,0,92.671
			C660.718,4466.049,649.844,4466.933,634.243,4462.524z M689.263,4428.984c4.995-6.182,1.187-19.126-5.591-19.126
			c-8.823,0-13.53,7.651-9.707,16.187C677.788,4434.282,683.97,4435.449,689.263,4428.984z"/>
		<path fill="#96FD00" d="M888.418,4355.742c-43.545-15.889-49.121-72.07-9.414-95.313c9.414-5.293,15-6.484,28.525-5.596
			c40.596,2.354,62.373,47.07,39.717,81.201C934.902,4354.55,909.014,4363.09,888.418,4355.742z M941.67,4323.955
			c4.717-4.717,4.404-15.596-0.586-19.717c-9.121-7.637-19.707,5.889-13.525,17.363
			C931.074,4328.378,936.377,4329.248,941.67,4323.955z"/>
		<path fill="#96FD00" d="M958.437,5068.222c-15-5.591-24.121-13.525-30.596-26.772c-12.061-24.707-6.768-49.424,14.111-67.363
			l12.363-10.591l-5.293-54.722c-5-49.712-5.293-54.722-0.889-54.722c3.525,0,7.646,11.479,17.353,49.429
			c7.07,27.061,14.121,51.191,15.303,53.833c1.475,2.642,6.465,5.596,11.191,6.465c12.061,2.656,31.475,20.596,35.879,33.54
			c4.99,15,1.768,37.065-7.061,50.313C1008.73,5066.171,979.023,5076.176,958.437,5068.222z M1010.508,5043.222
			c5.576-5,7.061-17.056,2.354-20c-5.303-3.237-14.697,1.772-16.475,9.121C992.851,5046.757,1000.195,5052.641,1010.508,5043.222z"
			/>
		<path fill="#96FD00" d="M1301.445,4511.933c-10-3.237-27.646-17.939-30-25.005c-0.879-2.939-9.707-2.651-43.545,0.884
			c-23.232,2.358-42.939,3.828-43.828,2.944c-4.717-4.712,6.465-10.293,41.768-21.479c35-10.879,40.01-13.232,40.01-18.828
			c0-8.535,12.939-30,21.768-35.596c29.121-19.121,67.363-8.232,81.484,22.949c10.283,22.065,4.121,48.242-14.727,64.126
			C1339.101,4514.589,1320.859,4518.115,1301.445,4511.933z M1349.394,4434.863c1.777-4.409-7.646-16.182-12.656-16.182
			c-10.879,0-15.879,9.702-8.535,17.07C1333.213,4440.747,1347.324,4440.161,1349.394,4434.863z"/>
	</g>
</g>
</svg>
